<?xml version="1.0" encoding="UTF-8" standalone="no"?>
<!-- Created with Inkscape (http://www.inkscape.org/) -->
<svg
   xmlns:dc="http://purl.org/dc/elements/1.1/"
   xmlns:cc="http://web.resource.org/cc/"
   xmlns:rdf="http://www.w3.org/1999/02/22-rdf-syntax-ns#"
   xmlns:svg="http://www.w3.org/2000/svg"
   xmlns="http://www.w3.org/2000/svg"
   xmlns:sodipodi="http://sodipodi.sourceforge.net/DTD/sodipodi-0.dtd"
   xmlns:inkscape="http://www.inkscape.org/namespaces/inkscape"
   width="744.09448819"
   height="1052.3622047"
   id="svg2"
   sodipodi:version="0.32"
   inkscape:version="0.45"
   sodipodi:docbase="/home/kwitters/projects/koonsolo/koonrepos/monorail/trunk/assets/graphics"
   sodipodi:docname="button_dialog.svg"
   inkscape:output_extension="org.inkscape.output.svg.inkscape"
   sodipodi:modified="TRUE"
   inkscape:export-filename="/home/kwitters/projects/koonsolo/koonrepos/monorail/trunk/assets/graphics/button_dialog2.png"
   inkscape:export-xdpi="39.558754"
   inkscape:export-ydpi="39.558754">
  <defs
     id="defs4" />
  <sodipodi:namedview
     id="base"
     pagecolor="#ffffff"
     bordercolor="#666666"
     borderopacity="1.0"
     gridtolerance="10000"
     guidetolerance="10"
     objecttolerance="10"
     inkscape:pageopacity="0.0"
     inkscape:pageshadow="2"
     inkscape:zoom="1"
     inkscape:cx="252.70211"
     inkscape:cy="544.95046"
     inkscape:document-units="px"
     inkscape:current-layer="layer1"
     inkscape:window-width="1272"
     inkscape:window-height="968"
     inkscape:window-x="0"
     inkscape:window-y="0" />
  <metadata
     id="metadata7">
    <rdf:RDF>
      <cc:Work
         rdf:about="">
        <dc:format>image/svg+xml</dc:format>
        <dc:type
           rdf:resource="http://purl.org/dc/dcmitype/StillImage" />
      </cc:Work>
    </rdf:RDF>
  </metadata>
  <g
     inkscape:label="Layer 1"
     inkscape:groupmode="layer"
     id="layer1">
    <path
       id="path3139"
       style="fill:#ffffff;fill-opacity:0.09659088;fill-rule:evenodd;stroke:#000000;stroke-width:12.39999962;stroke-linecap:butt;stroke-linejoin:miter;stroke-miterlimit:4;stroke-dasharray:none;stroke-opacity:1"
       d="M 607.40472,479.80254 C 607.40472,484.33771 607.40472,521.86598 607.40472,528.12523 C 584.67629,528.63031 573.05953,541.76229 573.05953,566.00595 C 565.88309,566.00595 185.42674,566.00595 178.59497,566.00595 C 178.59497,541.76229 166.97821,528.63031 144.24978,528.12523 C 144.24978,520.62012 144.24978,488.32107 144.24978,479.80254 C 166.97821,479.29746 178.59497,466.16548 178.59497,441.92182 C 185.77141,441.92182 566.22776,441.92182 573.05953,441.92182 C 573.05953,466.16548 584.67629,479.29746 607.40472,479.80254 z "
       sodipodi:nodetypes="ccccccccc" />
    <path
       sodipodi:type="arc"
       style="opacity:1;fill:none;fill-opacity:1;fill-rule:nonzero;stroke:#000000;stroke-width:8.14339352;stroke-linecap:round;stroke-linejoin:miter;stroke-miterlimit:4;stroke-dasharray:none;stroke-dashoffset:0;stroke-opacity:1"
       id="path5092"
       sodipodi:cx="142.12846"
       sodipodi:cy="441.42194"
       sodipodi:rx="4.2426405"
       sodipodi:ry="4.2426405"
       d="M 146.3711 441.42194 A 4.2426405 4.2426405 0 1 1  137.88582,441.42194 A 4.2426405 4.2426405 0 1 1  146.3711 441.42194 z"
       transform="matrix(1.5227066,0,0,1.5227066,-66.416982,-223.774)" />
    <path
       sodipodi:type="arc"
       style="opacity:1;fill:none;fill-opacity:1;fill-rule:nonzero;stroke:#000000;stroke-width:8.14339352;stroke-linecap:round;stroke-linejoin:miter;stroke-miterlimit:4;stroke-dasharray:none;stroke-dashoffset:0;stroke-opacity:1"
       id="path5118"
       sodipodi:cx="142.12846"
       sodipodi:cy="441.42194"
       sodipodi:rx="4.2426405"
       sodipodi:ry="4.2426405"
       d="M 146.3711 441.42194 A 4.2426405 4.2426405 0 1 1  137.88582,441.42194 A 4.2426405 4.2426405 0 1 1  146.3711 441.42194 z"
       transform="matrix(1.5227066,0,0,1.5227066,-68.41995,-113.79391)" />
    <path
       sodipodi:type="arc"
       style="opacity:1;fill:none;fill-opacity:1;fill-rule:nonzero;stroke:#000000;stroke-width:8.14339352;stroke-linecap:round;stroke-linejoin:miter;stroke-miterlimit:4;stroke-dasharray:none;stroke-dashoffset:0;stroke-opacity:1"
       id="path5120"
       sodipodi:cx="142.12846"
       sodipodi:cy="441.42194"
       sodipodi:rx="4.2426405"
       sodipodi:ry="4.2426405"
       d="M 146.3711 441.42194 A 4.2426405 4.2426405 0 1 1  137.88582,441.42194 A 4.2426405 4.2426405 0 1 1  146.3711 441.42194 z"
       transform="matrix(1.5227066,0,0,1.5227066,388.58005,-223.79391)" />
    <path
       sodipodi:type="arc"
       style="opacity:1;fill:none;fill-opacity:1;fill-rule:nonzero;stroke:#000000;stroke-width:8.14339352;stroke-linecap:round;stroke-linejoin:miter;stroke-miterlimit:4;stroke-dasharray:none;stroke-dashoffset:0;stroke-opacity:1"
       id="path5122"
       sodipodi:cx="142.12846"
       sodipodi:cy="441.42194"
       sodipodi:rx="4.2426405"
       sodipodi:ry="4.2426405"
       d="M 146.3711 441.42194 A 4.2426405 4.2426405 0 1 1  137.88582,441.42194 A 4.2426405 4.2426405 0 1 1  146.3711 441.42194 z"
       transform="matrix(1.5227066,0,0,1.5227066,388.58005,-112.79391)" />
  </g>
</svg>
